999
FreeCAD v0.19 24276 (Git)
  0
SECTION
  2
HEADER
  9
$ACADVER
  1
AC1014
  9
$ACADMAINTVER
 70
     9
  9
$DWGCODEPAGE
  3
ANSI_1252
  9
$TEXTSTYLE
  7
STANDARD
  9
$DIMSTYLE
  2
STANDARD
  9
$DIMTXSTY
  7
STANDARD
  9
$CMLSTYLE
  2
STANDARD
  9
$PEXTMAX
 10
50
 20
50
 30
50
  9
$PEXTMIN
 10
0
 20
0
 30
0
  9
$HANDSEED
  5
FFFF
  0
ENDSEC
  0
SECTION
  2
CLASSES
  0
CLASS
  1
ACDBDICTIONARYWDFLT
  2
AcDbDictionaryWithDefault
  3
ObjectDBX Classes
 90
        0
280
     0
281
     0
  0
CLASS
  1
XRECORD
  2
AcDbXrecord
  3
ObjectDBX Classes
 90
        0
280
     0
281
     0
  0
CLASS
  1
LWPOLYLINE
  2
AcDbPolyline
  3
ObjectDBX Classes
 90
        0
280
     0
281
     1
  0
ENDSEC
  0
SECTION
  2
TABLES
  0
TABLE
  2
VPORT
  5
20
330
0
100
AcDbSymbolTable
 70
     1
  0
VPORT
  5
21
330
20
100
AcDbSymbolTableRecord
100
AcDbViewportTableRecord
  2
*ACTIVE
 70
     0
  0
ENDTAB
  0
TABLE
  2
LTYPE
  5
22
330
0
100
AcDbSymbolTable
 70
     1
  0
LTYPE
  5
23
330
21
100
AcDbSymbolTableRecord
100
AcDbLinetypeTableRecord
  2
BYBLOCK
 70
     0
  3

 72
    65
 73
     0
 40
0.0
  0
LTYPE
  5
24
330
21
100
AcDbSymbolTableRecord
100
AcDbLinetypeTableRecord
  2
BYLAYER
 70
     0
  3

 72
    65
 73
     0
 40
0.0
  0
LTYPE
  5
25
330
21
100
AcDbSymbolTableRecord
100
AcDbLinetypeTableRecord
  2
CONTINUOUS
 70
     0
  3
Solid line
 72
    65
 73
     0
 40
0.0
  0
ENDTAB
  0
TABLE
  2
LAYER
  5
A9B
330
0
100
AcDbSymbolTable
 70
3
  0
LAYER
  5
A9C
330
A9B
100
AcDbSymbolTableRecord
100
AcDbLayerTableRecord
  2
0
 70
   0
 62
   7
  6
CONTINUOUS
  0
LAYER
  5
A9D
330
A9B
100
AcDbSymbolTableRecord
100
AcDbLayerTableRecord
  2
none
 70
    0
 62
    7
  6
CONTINUOUS
  0
LAYER
  5
A9E
330
A9B
100
AcDbSymbolTableRecord
100
AcDbLayerTableRecord
  2
Shape2DView
 70
    0
 62
    7
  6
CONTINUOUS
  0
ENDTAB
  0
TABLE
  2
STYLE
  5
70
330
0
100
AcDbSymbolTable
 70
     2
  0
STYLE
  5
71
330
70
100
AcDbSymbolTableRecord
100
AcDbTextStyleTableRecord
  2
STANDARD
 70
     0
 40
0.0
 41
1.0
 50
0.0
 71
     0
 42
2.5
  3
arial.ttf
  4

  0
STYLE
  5
72
330
70
100
AcDbSymbolTableRecord
100
AcDbTextStyleTableRecord
  2
ANNOTATIVE
 70
     0
 40
0.0
 41
1.0
 50
0.0
 71
     0
 42
2.5
  3
arial.ttf
  4

  0
ENDTAB
  0
TABLE
  2
VIEW
  5
73
330
0
100
AcDbSymbolTable
 70
     0
  0
ENDTAB
  0
TABLE
  2
UCS
  5
74
330
0
100
AcDbSymbolTable
 70
     0
  0
ENDTAB
  0
TABLE
  2
APPID
  5
75
330
0
100
AcDbSymbolTable
 70
     2
  0
APPID
  5
76
330
75
100
AcDbSymbolTableRecord
100
AcDbRegAppTableRecord
  2
ACAD
 70
     0
  0
APPID
  5
77
330
75
100
AcDbSymbolTableRecord
100
AcDbRegAppTableRecord
  2
ACADANNOTATIVE
 70
     0
  0
ENDTAB
  0
TABLE
  2
DIMSTYLE
  5
78
330
0
100
AcDbSymbolTable
 70
     2
  0
DIMSTYLE
105
79
330
78
100
AcDbSymbolTableRecord
100
AcDbDimStyleTableRecord
  2
STANDARD
 70
     0
  3

  4

  5

  6

  7

 40
0.0
 41
2.5
 42
0.625
 43
3.75
 44
1.25
 45
0.0
 46
0.0
 47
0.0
 48
0.0
140
2.5
141
2.5
142
0.0
143
0.03937007874016
144
1.0
145
0.0
146
1.0
147
0.625
 71
     0
 72
     0
 73
     0
 74
     0
 75
     0
 76
     0
 77
     1
 78
     8
170
     0
171
     3
172
     1
173
     0
174
     0
175
     0
176
     0
177
     0
178
     0
270
     2
271
     2
272
     2
273
     2
274
     3
340
71
275
     0
280
     0
281
     0
282
     0
283
     0
284
     8
285
     0
286
     0
287
     3
288
     0
  0
ENDTAB
  0
TABLE
  2
BLOCK_RECORD
  5
A01
330
0
100
AcDbSymbolTable
  70
5
  0
BLOCK_RECORD
  5
A02
330
A01
100
AcDbSymbolTableRecord
100
AcDbBlockTableRecord
  2
*MODEL_SPACE
  0
BLOCK_RECORD
  5
A03
330
A01
100
AcDbSymbolTableRecord
100
AcDbBlockTableRecord
  2
*PAPER_SPACE
  0
ENDTAB
  0
ENDSEC
  0
SECTION
  2
BLOCKS
  0
BLOCK
  5
A04
330
A02
100
AcDbEntity
  8
0
100
AcDbBlockBegin
  2
*MODEL_SPACE
 70
   0
 10
0
 20
0
 30
0
  3
*MODEL_SPACE
  1
 
  0
ENDBLK
  5
A05
330
A02
100
AcDbEntity
  8
0
100
AcDbBlockEnd
  0
BLOCK
  5
A06
330
A03
100
AcDbEntity
 67
1
  8
0
100
AcDbBlockBegin
  2
*PAPER_SPACE
 70
   0
 10
0
 20
0
 30
0
  3
*PAPER_SPACE
  1
 
  0
ENDBLK
  5
A07
330
A03
100
AcDbEntity
 67
    1
  8
0
100
AcDbBlockEnd
  0
ENDSEC
  0
SECTION
  2
ENTITIES
  0
ARC
  5
A08
330
A02
100
AcDbEntity
  8
Shape2DView
100
AcDbCircle
 10
-49.6066
 20
-51.9547
 30
0
 40
1.00045
100
AcDbArc
 50
-150
 51
-60
  0
LINE
  5
A09
330
A02
100
AcDbEntity
  8
Shape2DView
100
AcDbLine
 10
-50.883
 20
-51.7449
 30
0
 11
-50.473
 21
-52.4549
 31
0
  0
LINE
  5
A0A
330
A02
100
AcDbEntity
  8
Shape2DView
100
AcDbLine
 10
-49.1063
 20
-52.8211
 30
0
 11
-34.814
 21
-44.5694
 31
0
  0
LINE
  5
A0B
330
A02
100
AcDbEntity
  8
Shape2DView
100
AcDbLine
 10
-34.814
 20
-44.5694
 30
0
 11
-18.873
 21
-40.298
 31
0
  0
LINE
  5
A0C
330
A02
100
AcDbEntity
  8
Shape2DView
100
AcDbLine
 10
-18.873
 20
-40.298
 30
0
 11
16.717
 21
-40.298
 31
0
  0
LINE
  5
A0D
330
A02
100
AcDbEntity
  8
Shape2DView
100
AcDbLine
 10
16.717
 20
-40.298
 30
0
 11
17.717
 21
-40.298
 31
0
  0
LINE
  5
A0E
330
A02
100
AcDbEntity
  8
Shape2DView
100
AcDbLine
 10
17.717
 20
-40.298
 30
0
 11
62.717
 21
-29.0449
 31
0
  0
LINE
  5
A0F
330
A02
100
AcDbEntity
  8
Shape2DView
100
AcDbLine
 10
62.717
 20
-29.0449
 30
0
 11
63.217
 21
-28.5449
 31
0
  0
LINE
  5
A10
330
A02
100
AcDbEntity
  8
Shape2DView
100
AcDbLine
 10
63.217
 20
-28.5449
 30
0
 11
63.217
 21
38.3551
 31
0
  0
ARC
  5
A11
330
A02
100
AcDbEntity
  8
Shape2DView
100
AcDbCircle
 10
62.217
 20
38.3551
 30
0
 40
1
100
AcDbArc
 50
0
 51
90
  0
LINE
  5
A12
330
A02
100
AcDbEntity
  8
Shape2DView
100
AcDbLine
 10
62.217
 20
39.3551
 30
0
 11
30.817
 21
39.3551
 31
0
  0
LINE
  5
A13
330
A02
100
AcDbEntity
  8
Shape2DView
100
AcDbLine
 10
30.817
 20
39.3551
 30
0
 11
27.717
 21
39.3551
 31
0
  0
ARC
  5
A14
330
A02
100
AcDbEntity
  8
Shape2DView
100
AcDbCircle
 10
27.717
 20
40.3551
 30
0
 40
1
100
AcDbArc
 50
180
 51
-90
  0
LINE
  5
A15
330
A02
100
AcDbEntity
  8
Shape2DView
100
AcDbLine
 10
26.717
 20
40.3551
 30
0
 11
26.717
 21
51.9551
 31
0
  0
ARC
  5
A16
330
A02
100
AcDbEntity
  8
Shape2DView
100
AcDbCircle
 10
25.717
 20
51.9551
 30
0
 40
1
100
AcDbArc
 50
0
 51
90
  0
LINE
  5
A17
330
A02
100
AcDbEntity
  8
Shape2DView
100
AcDbLine
 10
25.717
 20
52.9551
 30
0
 11
-30.883
 21
52.9551
 31
0
  0
LINE
  5
A18
330
A02
100
AcDbEntity
  8
Shape2DView
100
AcDbLine
 10
-30.883
 20
52.9551
 30
0
 11
-41.933
 21
52.9551
 31
0
  0
LINE
  5
A19
330
A02
100
AcDbEntity
  8
Shape2DView
100
AcDbLine
 10
-41.933
 20
52.9551
 30
0
 11
-44.383
 21
52.9551
 31
0
  0
ARC
  5
A1A
330
A02
100
AcDbEntity
  8
Shape2DView
100
AcDbCircle
 10
-44.383
 20
51.9551
 30
0
 40
1
100
AcDbArc
 50
90
 51
180
  0
LINE
  5
A1B
330
A02
100
AcDbEntity
  8
Shape2DView
100
AcDbLine
 10
-45.383
 20
51.9551
 30
0
 11
-45.383
 21
-1.24489
 31
0
  0
LINE
  5
A1C
330
A02
100
AcDbEntity
  8
Shape2DView
100
AcDbLine
 10
-45.383
 20
-1.24489
 30
0
 11
-45.383
 21
-10.1449
 31
0
  0
LINE
  5
A1D
330
A02
100
AcDbEntity
  8
Shape2DView
100
AcDbLine
 10
-45.383
 20
-10.1449
 30
0
 11
-45.383
 21
-14.1049
 31
0
  0
LINE
  5
A1E
330
A02
100
AcDbEntity
  8
Shape2DView
100
AcDbLine
 10
-45.383
 20
-14.1049
 30
0
 11
-45.643
 21
-16.7449
 31
0
  0
LINE
  5
A1F
330
A02
100
AcDbEntity
  8
Shape2DView
100
AcDbLine
 10
-45.643
 20
-16.7449
 30
0
 11
-46.103
 21
-18.3349
 31
0
  0
LINE
  5
A20
330
A02
100
AcDbEntity
  8
Shape2DView
100
AcDbLine
 10
-46.103
 20
-18.3349
 30
0
 11
-46.523
 21
-19.3849
 31
0
  0
LINE
  5
A21
330
A02
100
AcDbEntity
  8
Shape2DView
100
AcDbLine
 10
-46.523
 20
-19.3849
 30
0
 11
-47.073
 21
-20.0949
 31
0
  0
LINE
  5
A22
330
A02
100
AcDbEntity
  8
Shape2DView
100
AcDbLine
 10
-47.073
 20
-20.0949
 30
0
 11
-48.4245
 21
-21.0266
 31
0
  0
LINE
  5
A23
330
A02
100
AcDbEntity
  8
Shape2DView
100
AcDbLine
 10
-48.4245
 20
-21.0266
 30
0
 11
-62.7168
 21
-29.2782
 31
0
  0
ARC
  5
A24
330
A02
100
AcDbEntity
  8
Shape2DView
100
AcDbCircle
 10
-62.2166
 20
-30.1447
 30
0
 40
1.00045
100
AcDbArc
 50
120
 51
-150
  0
LINE
  5
A25
330
A02
100
AcDbEntity
  8
Shape2DView
100
AcDbLine
 10
-63.083
 20
-30.6449
 30
0
 11
-50.883
 21
-51.7449
 31
0
  0
LINE
  5
A26
330
A02
100
AcDbEntity
  8
Shape2DView
100
AcDbLine
 10
6.71702
 20
47.7551
 30
0
 11
-7.28298
 21
47.7551
 31
0
  0
LINE
  5
A27
330
A02
100
AcDbEntity
  8
Shape2DView
100
AcDbLine
 10
6.71702
 20
33.7551
 30
0
 11
6.71702
 21
47.7551
 31
0
  0
LINE
  5
A28
330
A02
100
AcDbEntity
  8
Shape2DView
100
AcDbLine
 10
-7.28298
 20
33.7551
 30
0
 11
6.71702
 21
33.7551
 31
0
  0
LINE
  5
A29
330
A02
100
AcDbEntity
  8
Shape2DView
100
AcDbLine
 10
-7.28298
 20
47.7551
 30
0
 11
-7.28298
 21
33.7551
 31
0
  0
LINE
  5
A2A
330
A02
100
AcDbEntity
  8
Shape2DView
100
AcDbLine
 10
10.717
 20
32.3551
 30
0
 11
24.717
 21
32.3551
 31
0
  0
LINE
  5
A2B
330
A02
100
AcDbEntity
  8
Shape2DView
100
AcDbLine
 10
10.717
 20
46.3551
 30
0
 11
10.717
 21
32.3551
 31
0
  0
LINE
  5
A2C
330
A02
100
AcDbEntity
  8
Shape2DView
100
AcDbLine
 10
24.717
 20
46.3551
 30
0
 11
10.717
 21
46.3551
 31
0
  0
LINE
  5
A2D
330
A02
100
AcDbEntity
  8
Shape2DView
100
AcDbLine
 10
24.717
 20
32.3551
 30
0
 11
24.717
 21
46.3551
 31
0
  0
LINE
  5
A2E
330
A02
100
AcDbEntity
  8
Shape2DView
100
AcDbLine
 10
24.717
 20
12.3551
 30
0
 11
10.717
 21
12.3551
 31
0
  0
LINE
  5
A2F
330
A02
100
AcDbEntity
  8
Shape2DView
100
AcDbLine
 10
24.717
 20
-1.64489
 30
0
 11
24.717
 21
12.3551
 31
0
  0
LINE
  5
A30
330
A02
100
AcDbEntity
  8
Shape2DView
100
AcDbLine
 10
10.717
 20
-1.64489
 30
0
 11
24.717
 21
-1.64489
 31
0
  0
LINE
  5
A31
330
A02
100
AcDbEntity
  8
Shape2DView
100
AcDbLine
 10
10.717
 20
12.3551
 30
0
 11
10.717
 21
-1.64489
 31
0
  0
LINE
  5
A32
330
A02
100
AcDbEntity
  8
Shape2DView
100
AcDbLine
 10
24.717
 20
29.3551
 30
0
 11
10.717
 21
29.3551
 31
0
  0
LINE
  5
A33
330
A02
100
AcDbEntity
  8
Shape2DView
100
AcDbLine
 10
24.717
 20
15.3551
 30
0
 11
24.717
 21
29.3551
 31
0
  0
LINE
  5
A34
330
A02
100
AcDbEntity
  8
Shape2DView
100
AcDbLine
 10
10.717
 20
15.3551
 30
0
 11
24.717
 21
15.3551
 31
0
  0
LINE
  5
A35
330
A02
100
AcDbEntity
  8
Shape2DView
100
AcDbLine
 10
10.717
 20
29.3551
 30
0
 11
10.717
 21
15.3551
 31
0
  0
LINE
  5
A36
330
A02
100
AcDbEntity
  8
Shape2DView
100
AcDbLine
 10
-7.28298
 20
13.7551
 30
0
 11
-7.28298
 21
-0.244888
 31
0
  0
LINE
  5
A37
330
A02
100
AcDbEntity
  8
Shape2DView
100
AcDbLine
 10
6.71702
 20
13.7551
 30
0
 11
-7.28298
 21
13.7551
 31
0
  0
LINE
  5
A38
330
A02
100
AcDbEntity
  8
Shape2DView
100
AcDbLine
 10
6.71702
 20
-0.244888
 30
0
 11
6.71702
 21
13.7551
 31
0
  0
LINE
  5
A39
330
A02
100
AcDbEntity
  8
Shape2DView
100
AcDbLine
 10
-7.28298
 20
-0.244888
 30
0
 11
6.71702
 21
-0.244888
 31
0
  0
LINE
  5
A3A
330
A02
100
AcDbEntity
  8
Shape2DView
100
AcDbLine
 10
-7.28298
 20
30.7551
 30
0
 11
-7.28298
 21
16.7551
 31
0
  0
LINE
  5
A3B
330
A02
100
AcDbEntity
  8
Shape2DView
100
AcDbLine
 10
6.71702
 20
30.7551
 30
0
 11
-7.28298
 21
30.7551
 31
0
  0
LINE
  5
A3C
330
A02
100
AcDbEntity
  8
Shape2DView
100
AcDbLine
 10
6.71702
 20
16.7551
 30
0
 11
6.71702
 21
30.7551
 31
0
  0
LINE
  5
A3D
330
A02
100
AcDbEntity
  8
Shape2DView
100
AcDbLine
 10
-7.28298
 20
16.7551
 30
0
 11
6.71702
 21
16.7551
 31
0
  0
LINE
  5
A3E
330
A02
100
AcDbEntity
  8
Shape2DView
100
AcDbLine
 10
-11.283
 20
12.3551
 30
0
 11
-25.283
 21
12.3551
 31
0
  0
LINE
  5
A3F
330
A02
100
AcDbEntity
  8
Shape2DView
100
AcDbLine
 10
-11.283
 20
-1.64489
 30
0
 11
-11.283
 21
12.3551
 31
0
  0
LINE
  5
A40
330
A02
100
AcDbEntity
  8
Shape2DView
100
AcDbLine
 10
-25.283
 20
-1.64489
 30
0
 11
-11.283
 21
-1.64489
 31
0
  0
LINE
  5
A41
330
A02
100
AcDbEntity
  8
Shape2DView
100
AcDbLine
 10
-25.283
 20
12.3551
 30
0
 11
-25.283
 21
-1.64489
 31
0
  0
LINE
  5
A42
330
A02
100
AcDbEntity
  8
Shape2DView
100
AcDbLine
 10
-25.283
 20
32.3551
 30
0
 11
-11.283
 21
32.3551
 31
0
  0
LINE
  5
A43
330
A02
100
AcDbEntity
  8
Shape2DView
100
AcDbLine
 10
-25.283
 20
46.3551
 30
0
 11
-25.283
 21
32.3551
 31
0
  0
LINE
  5
A44
330
A02
100
AcDbEntity
  8
Shape2DView
100
AcDbLine
 10
-11.283
 20
46.3551
 30
0
 11
-25.283
 21
46.3551
 31
0
  0
LINE
  5
A45
330
A02
100
AcDbEntity
  8
Shape2DView
100
AcDbLine
 10
-11.283
 20
32.3551
 30
0
 11
-11.283
 21
46.3551
 31
0
  0
LINE
  5
A46
330
A02
100
AcDbEntity
  8
Shape2DView
100
AcDbLine
 10
-25.283
 20
29.3551
 30
0
 11
-25.283
 21
15.3551
 31
0
  0
LINE
  5
A47
330
A02
100
AcDbEntity
  8
Shape2DView
100
AcDbLine
 10
-11.283
 20
29.3551
 30
0
 11
-25.283
 21
29.3551
 31
0
  0
LINE
  5
A48
330
A02
100
AcDbEntity
  8
Shape2DView
100
AcDbLine
 10
-11.283
 20
15.3551
 30
0
 11
-11.283
 21
29.3551
 31
0
  0
LINE
  5
A49
330
A02
100
AcDbEntity
  8
Shape2DView
100
AcDbLine
 10
-25.283
 20
15.3551
 30
0
 11
-11.283
 21
15.3551
 31
0
  0
LINE
  5
A4A
330
A02
100
AcDbEntity
  8
Shape2DView
100
AcDbLine
 10
10.717
 20
-4.64489
 30
0
 11
10.717
 21
-18.6449
 31
0
  0
LINE
  5
A4B
330
A02
100
AcDbEntity
  8
Shape2DView
100
AcDbLine
 10
24.717
 20
-4.64489
 30
0
 11
10.717
 21
-4.64489
 31
0
  0
LINE
  5
A4C
330
A02
100
AcDbEntity
  8
Shape2DView
100
AcDbLine
 10
24.717
 20
-18.6449
 30
0
 11
24.717
 21
-4.64489
 31
0
  0
LINE
  5
A4D
330
A02
100
AcDbEntity
  8
Shape2DView
100
AcDbLine
 10
10.717
 20
-18.6449
 30
0
 11
24.717
 21
-18.6449
 31
0
  0
LINE
  5
A4E
330
A02
100
AcDbEntity
  8
Shape2DView
100
AcDbLine
 10
-29.283
 20
-4.04489
 30
0
 11
-29.283
 21
9.95511
 31
0
  0
LINE
  5
A4F
330
A02
100
AcDbEntity
  8
Shape2DView
100
AcDbLine
 10
-43.283
 20
-4.04489
 30
0
 11
-29.283
 21
-4.04489
 31
0
  0
LINE
  5
A50
330
A02
100
AcDbEntity
  8
Shape2DView
100
AcDbLine
 10
-43.283
 20
9.95511
 30
0
 11
-43.283
 21
-4.04489
 31
0
  0
LINE
  5
A51
330
A02
100
AcDbEntity
  8
Shape2DView
100
AcDbLine
 10
-29.283
 20
9.95511
 30
0
 11
-43.283
 21
9.95511
 31
0
  0
CIRCLE
  5
A52
330
A02
100
AcDbEntity
  8
Shape2DView
100
AcDbCircle
 10
-27.583
 20
28.4551
 40
1.1
  0
LINE
  5
A53
330
A02
100
AcDbEntity
  8
Shape2DView
100
AcDbLine
 10
-43.283
 20
12.9551
 30
0
 11
-29.283
 21
12.9551
 31
0
  0
LINE
  5
A54
330
A02
100
AcDbEntity
  8
Shape2DView
100
AcDbLine
 10
-43.283
 20
26.9551
 30
0
 11
-43.283
 21
12.9551
 31
0
  0
LINE
  5
A55
330
A02
100
AcDbEntity
  8
Shape2DView
100
AcDbLine
 10
-29.283
 20
26.9551
 30
0
 11
-43.283
 21
26.9551
 31
0
  0
LINE
  5
A56
330
A02
100
AcDbEntity
  8
Shape2DView
100
AcDbLine
 10
-29.283
 20
12.9551
 30
0
 11
-29.283
 21
26.9551
 31
0
  0
LINE
  5
A57
330
A02
100
AcDbEntity
  8
Shape2DView
100
AcDbLine
 10
-29.283
 20
29.9551
 30
0
 11
-29.283
 21
43.9551
 31
0
  0
LINE
  5
A58
330
A02
100
AcDbEntity
  8
Shape2DView
100
AcDbLine
 10
-43.283
 20
29.9551
 30
0
 11
-29.283
 21
29.9551
 31
0
  0
LINE
  5
A59
330
A02
100
AcDbEntity
  8
Shape2DView
100
AcDbLine
 10
-43.283
 20
43.9551
 30
0
 11
-43.283
 21
29.9551
 31
0
  0
LINE
  5
A5A
330
A02
100
AcDbEntity
  8
Shape2DView
100
AcDbLine
 10
-29.283
 20
43.9551
 30
0
 11
-43.283
 21
43.9551
 31
0
  0
CIRCLE
  5
A5B
330
A02
100
AcDbEntity
  8
Shape2DView
100
AcDbCircle
 10
9.01702
 20
-3.14489
 40
1.1
  0
LINE
  5
A5C
330
A02
100
AcDbEntity
  8
Shape2DView
100
AcDbLine
 10
6.71702
 20
-17.2449
 30
0
 11
6.71702
 21
-3.24489
 31
0
  0
LINE
  5
A5D
330
A02
100
AcDbEntity
  8
Shape2DView
100
AcDbLine
 10
-7.28298
 20
-17.2449
 30
0
 11
6.71702
 21
-17.2449
 31
0
  0
LINE
  5
A5E
330
A02
100
AcDbEntity
  8
Shape2DView
100
AcDbLine
 10
-7.28298
 20
-3.24489
 30
0
 11
-7.28298
 21
-17.2449
 31
0
  0
LINE
  5
A5F
330
A02
100
AcDbEntity
  8
Shape2DView
100
AcDbLine
 10
6.71702
 20
-3.24489
 30
0
 11
-7.28298
 21
-3.24489
 31
0
  0
LINE
  5
A60
330
A02
100
AcDbEntity
  8
Shape2DView
100
AcDbLine
 10
-25.283
 20
-4.64489
 30
0
 11
-25.283
 21
-18.6449
 31
0
  0
LINE
  5
A61
330
A02
100
AcDbEntity
  8
Shape2DView
100
AcDbLine
 10
-11.283
 20
-4.64489
 30
0
 11
-25.283
 21
-4.64489
 31
0
  0
LINE
  5
A62
330
A02
100
AcDbEntity
  8
Shape2DView
100
AcDbLine
 10
-11.283
 20
-18.6449
 30
0
 11
-11.283
 21
-4.64489
 31
0
  0
LINE
  5
A63
330
A02
100
AcDbEntity
  8
Shape2DView
100
AcDbLine
 10
-25.283
 20
-18.6449
 30
0
 11
-11.283
 21
-18.6449
 31
0
  0
LINE
  5
A64
330
A02
100
AcDbEntity
  8
Shape2DView
100
AcDbLine
 10
-29.283
 20
-7.04489
 30
0
 11
-43.283
 21
-7.04489
 31
0
  0
LINE
  5
A65
330
A02
100
AcDbEntity
  8
Shape2DView
100
AcDbLine
 10
-29.283
 20
-21.0449
 30
0
 11
-29.283
 21
-7.04489
 31
0
  0
LINE
  5
A66
330
A02
100
AcDbEntity
  8
Shape2DView
100
AcDbLine
 10
-43.283
 20
-21.0449
 30
0
 11
-29.283
 21
-21.0449
 31
0
  0
LINE
  5
A67
330
A02
100
AcDbEntity
  8
Shape2DView
100
AcDbLine
 10
-43.283
 20
-7.04489
 30
0
 11
-43.283
 21
-21.0449
 31
0
  0
LINE
  5
A68
330
A02
100
AcDbEntity
  8
Shape2DView
100
AcDbLine
 10
-52.0452
 20
-46.5071
 30
0
 11
-39.9208
 21
-39.5071
 31
0
  0
LINE
  5
A69
330
A02
100
AcDbEntity
  8
Shape2DView
100
AcDbLine
 10
-59.0452
 20
-34.3827
 30
0
 11
-52.0452
 21
-46.5071
 31
0
  0
LINE
  5
A6A
330
A02
100
AcDbEntity
  8
Shape2DView
100
AcDbLine
 10
-46.9208
 20
-27.3827
 30
0
 11
-59.0452
 21
-34.3827
 31
0
  0
LINE
  5
A6B
330
A02
100
AcDbEntity
  8
Shape2DView
100
AcDbLine
 10
-39.9208
 20
-39.5071
 30
0
 11
-46.9208
 21
-27.3827
 31
0
  0
CIRCLE
  5
A6C
330
A02
100
AcDbEntity
  8
Shape2DView
100
AcDbCircle
 10
-42.183
 20
-25.8449
 40
1.1
  0
LINE
  5
A6D
330
A02
100
AcDbEntity
  8
Shape2DView
100
AcDbLine
 10
-20.4098
 20
-38.7946
 30
0
 11
-24.0332
 21
-25.2717
 31
0
  0
LINE
  5
A6E
330
A02
100
AcDbEntity
  8
Shape2DView
100
AcDbLine
 10
-33.9327
 20
-42.4181
 30
0
 11
-20.4098
 21
-38.7946
 31
0
  0
LINE
  5
A6F
330
A02
100
AcDbEntity
  8
Shape2DView
100
AcDbLine
 10
-37.5562
 20
-28.8951
 30
0
 11
-33.9327
 21
-42.4181
 31
0
  0
LINE
  5
A70
330
A02
100
AcDbEntity
  8
Shape2DView
100
AcDbLine
 10
-24.0332
 20
-25.2717
 30
0
 11
-37.5562
 21
-28.8951
 31
0
  0
LINE
  5
A71
330
A02
100
AcDbEntity
  8
Shape2DView
100
AcDbLine
 10
1.71702
 20
-38.2449
 30
0
 11
15.717
 21
-38.2449
 31
0
  0
LINE
  5
A72
330
A02
100
AcDbEntity
  8
Shape2DView
100
AcDbLine
 10
1.71702
 20
-24.2449
 30
0
 11
1.71702
 21
-38.2449
 31
0
  0
LINE
  5
A73
330
A02
100
AcDbEntity
  8
Shape2DView
100
AcDbLine
 10
15.717
 20
-24.2449
 30
0
 11
1.71702
 21
-24.2449
 31
0
  0
LINE
  5
A74
330
A02
100
AcDbEntity
  8
Shape2DView
100
AcDbLine
 10
15.717
 20
-38.2449
 30
0
 11
15.717
 21
-24.2449
 31
0
  0
LINE
  5
A75
330
A02
100
AcDbEntity
  8
Shape2DView
100
AcDbLine
 10
-16.283
 20
-38.2449
 30
0
 11
-2.28298
 21
-38.2449
 31
0
  0
LINE
  5
A76
330
A02
100
AcDbEntity
  8
Shape2DView
100
AcDbLine
 10
-16.283
 20
-24.2449
 30
0
 11
-16.283
 21
-38.2449
 31
0
  0
LINE
  5
A77
330
A02
100
AcDbEntity
  8
Shape2DView
100
AcDbLine
 10
-2.28298
 20
-24.2449
 30
0
 11
-16.283
 21
-24.2449
 31
0
  0
LINE
  5
A78
330
A02
100
AcDbEntity
  8
Shape2DView
100
AcDbLine
 10
-2.28298
 20
-38.2449
 30
0
 11
-2.28298
 21
-24.2449
 31
0
  0
LINE
  5
A79
330
A02
100
AcDbEntity
  8
Shape2DView
100
AcDbLine
 10
46.717
 20
23.8551
 30
0
 11
60.717
 21
23.8551
 31
0
  0
LINE
  5
A7A
330
A02
100
AcDbEntity
  8
Shape2DView
100
AcDbLine
 10
46.717
 20
37.8551
 30
0
 11
46.717
 21
23.8551
 31
0
  0
LINE
  5
A7B
330
A02
100
AcDbEntity
  8
Shape2DView
100
AcDbLine
 10
60.717
 20
37.8551
 30
0
 11
46.717
 21
37.8551
 31
0
  0
LINE
  5
A7C
330
A02
100
AcDbEntity
  8
Shape2DView
100
AcDbLine
 10
60.717
 20
23.8551
 30
0
 11
60.717
 21
37.8551
 31
0
  0
CIRCLE
  5
A7D
330
A02
100
AcDbEntity
  8
Shape2DView
100
AcDbCircle
 10
44.717
 20
22.3551
 40
1.1
  0
LINE
  5
A7E
330
A02
100
AcDbEntity
  8
Shape2DView
100
AcDbLine
 10
28.717
 20
23.8551
 30
0
 11
42.717
 21
23.8551
 31
0
  0
LINE
  5
A7F
330
A02
100
AcDbEntity
  8
Shape2DView
100
AcDbLine
 10
28.717
 20
37.8551
 30
0
 11
28.717
 21
23.8551
 31
0
  0
LINE
  5
A80
330
A02
100
AcDbEntity
  8
Shape2DView
100
AcDbLine
 10
42.717
 20
37.8551
 30
0
 11
28.717
 21
37.8551
 31
0
  0
LINE
  5
A81
330
A02
100
AcDbEntity
  8
Shape2DView
100
AcDbLine
 10
42.717
 20
23.8551
 30
0
 11
42.717
 21
37.8551
 31
0
  0
LINE
  5
A82
330
A02
100
AcDbEntity
  8
Shape2DView
100
AcDbLine
 10
28.717
 20
6.85511
 30
0
 11
42.717
 21
6.85511
 31
0
  0
LINE
  5
A83
330
A02
100
AcDbEntity
  8
Shape2DView
100
AcDbLine
 10
28.717
 20
20.8551
 30
0
 11
28.717
 21
6.85511
 31
0
  0
LINE
  5
A84
330
A02
100
AcDbEntity
  8
Shape2DView
100
AcDbLine
 10
42.717
 20
20.8551
 30
0
 11
28.717
 21
20.8551
 31
0
  0
LINE
  5
A85
330
A02
100
AcDbEntity
  8
Shape2DView
100
AcDbLine
 10
42.717
 20
6.85511
 30
0
 11
42.717
 21
20.8551
 31
0
  0
LINE
  5
A86
330
A02
100
AcDbEntity
  8
Shape2DView
100
AcDbLine
 10
60.717
 20
6.85511
 30
0
 11
60.717
 21
20.8551
 31
0
  0
LINE
  5
A87
330
A02
100
AcDbEntity
  8
Shape2DView
100
AcDbLine
 10
46.717
 20
6.85511
 30
0
 11
60.717
 21
6.85511
 31
0
  0
LINE
  5
A88
330
A02
100
AcDbEntity
  8
Shape2DView
100
AcDbLine
 10
46.717
 20
20.8551
 30
0
 11
46.717
 21
6.85511
 31
0
  0
LINE
  5
A89
330
A02
100
AcDbEntity
  8
Shape2DView
100
AcDbLine
 10
60.717
 20
20.8551
 30
0
 11
46.717
 21
20.8551
 31
0
  0
LINE
  5
A8A
330
A02
100
AcDbEntity
  8
Shape2DView
100
AcDbLine
 10
46.717
 20
-10.1449
 30
0
 11
60.717
 21
-10.1449
 31
0
  0
LINE
  5
A8B
330
A02
100
AcDbEntity
  8
Shape2DView
100
AcDbLine
 10
46.717
 20
3.85511
 30
0
 11
46.717
 21
-10.1449
 31
0
  0
LINE
  5
A8C
330
A02
100
AcDbEntity
  8
Shape2DView
100
AcDbLine
 10
60.717
 20
3.85511
 30
0
 11
46.717
 21
3.85511
 31
0
  0
LINE
  5
A8D
330
A02
100
AcDbEntity
  8
Shape2DView
100
AcDbLine
 10
60.717
 20
-10.1449
 30
0
 11
60.717
 21
3.85511
 31
0
  0
LINE
  5
A8E
330
A02
100
AcDbEntity
  8
Shape2DView
100
AcDbLine
 10
42.717
 20
-10.1449
 30
0
 11
42.717
 21
3.85511
 31
0
  0
LINE
  5
A8F
330
A02
100
AcDbEntity
  8
Shape2DView
100
AcDbLine
 10
28.717
 20
-10.1449
 30
0
 11
42.717
 21
-10.1449
 31
0
  0
LINE
  5
A90
330
A02
100
AcDbEntity
  8
Shape2DView
100
AcDbLine
 10
28.717
 20
3.85511
 30
0
 11
28.717
 21
-10.1449
 31
0
  0
LINE
  5
A91
330
A02
100
AcDbEntity
  8
Shape2DView
100
AcDbLine
 10
42.717
 20
3.85511
 30
0
 11
28.717
 21
3.85511
 31
0
  0
LINE
  5
A92
330
A02
100
AcDbEntity
  8
Shape2DView
100
AcDbLine
 10
60.717
 20
-27.1449
 30
0
 11
60.717
 21
-13.1449
 31
0
  0
LINE
  5
A93
330
A02
100
AcDbEntity
  8
Shape2DView
100
AcDbLine
 10
46.717
 20
-27.1449
 30
0
 11
60.717
 21
-27.1449
 31
0
  0
LINE
  5
A94
330
A02
100
AcDbEntity
  8
Shape2DView
100
AcDbLine
 10
46.717
 20
-13.1449
 30
0
 11
46.717
 21
-27.1449
 31
0
  0
LINE
  5
A95
330
A02
100
AcDbEntity
  8
Shape2DView
100
AcDbLine
 10
60.717
 20
-13.1449
 30
0
 11
46.717
 21
-13.1449
 31
0
  0
LINE
  5
A96
330
A02
100
AcDbEntity
  8
Shape2DView
100
AcDbLine
 10
42.717
 20
-13.1449
 30
0
 11
28.717
 21
-13.1449
 31
0
  0
LINE
  5
A97
330
A02
100
AcDbEntity
  8
Shape2DView
100
AcDbLine
 10
42.717
 20
-27.1449
 30
0
 11
42.717
 21
-13.1449
 31
0
  0
LINE
  5
A98
330
A02
100
AcDbEntity
  8
Shape2DView
100
AcDbLine
 10
28.717
 20
-27.1449
 30
0
 11
42.717
 21
-27.1449
 31
0
  0
LINE
  5
A99
330
A02
100
AcDbEntity
  8
Shape2DView
100
AcDbLine
 10
28.717
 20
-13.1449
 30
0
 11
28.717
 21
-27.1449
 31
0
  0
CIRCLE
  5
A9A
330
A02
100
AcDbEntity
  8
Shape2DView
100
AcDbCircle
 10
44.743
 20
-11.6316
 40
1.1
  0
ENDSEC
  0
SECTION
  2
OBJECTS
  0
DICTIONARY
  5
F000
330
0
100
AcDbDictionary
  3
ACAD_GROUP
350
F001
  0
DICTIONARY
  5
F001
330
F000
100
AcDbDictionary
  0
ENDSEC
  0
EOF